<?xml version="1.0" encoding="UTF-8"?>
<svg version="1.1" xmlns="http://www.w3.org/2000/svg" width="2000" height="1500">
<path d="M0 0 C660 0 1320 0 2000 0 C2000 495 2000 990 2000 1500 C1340 1500 680 1500 0 1500 C0 1005 0 510 0 0 Z " fill="#FEFEFE" transform="translate(0,0)"/>
<path d="M0 0 C1.85783615 -0.00151062 1.85783615 -0.00151062 3.75320435 -0.00305176 C23.34556715 0.00769808 42.57183819 0.6303155 62 3.25 C63.63509521 3.4668042 63.63509521 3.4668042 65.30322266 3.68798828 C89.50935699 7.00636376 113.70352793 11.84677931 137 19.25 C137.93715851 19.54583984 137.93715851 19.54583984 138.89324951 19.84765625 C202.86915173 40.0620582 261.38778012 70.09879977 313 113.25 C313.52142578 113.68505859 314.04285156 114.12011719 314.58007812 114.56835938 C331.73304986 128.92663206 348.96604878 144.26178878 363.4140625 161.38671875 C365.30191407 163.60471185 367.27702792 165.73242155 369.25 167.875 C374.30182357 173.48150014 378.92821769 179.37398749 383.52880859 185.35058594 C384.99049506 187.23772844 386.47165296 189.10803354 387.95703125 190.9765625 C403.81961584 211.09866184 417.58606913 232.86072504 430 255.25 C430.50692383 256.16072266 431.01384766 257.07144531 431.53613281 258.00976562 C470.38304193 328.43398683 489.40452752 408.44532037 489.375 488.625 C489.37758316 490.40877045 489.37758316 490.40877045 489.38021851 492.22857666 C489.376544 514.62176231 487.90193864 536.8122459 484.875 559 C484.77217712 559.76161438 484.66935425 560.52322876 484.56341553 561.30792236 C480.98850466 587.41649819 475.41820662 613.26451567 467 638.25 C466.67451172 639.24370605 466.34902344 640.23741211 466.01367188 641.26123047 C455.01273629 674.83287117 440.83144974 706.75332102 423 737.25 C422.48115234 738.14170898 421.96230469 739.03341797 421.42773438 739.95214844 C411.35621091 757.20939037 400.15671908 773.40420736 388 789.25 C387.27997803 790.19069336 387.27997803 790.19069336 386.54541016 791.15039062 C381.27854159 798.01006943 375.89125944 804.66264184 370.03515625 811.03515625 C368.21532831 813.01565997 366.44433669 815.02626277 364.6875 817.0625 C353.20062028 830.20538298 341.22260692 843.39302543 327.86328125 854.6640625 C325.64528815 856.55191407 323.51757845 858.52702792 321.375 860.5 C315.77256758 865.54815828 309.88465799 870.17244425 303.91259766 874.77001953 C301.98739724 876.2597521 300.0770228 877.7669948 298.16796875 879.27734375 C256.47544428 912.01895964 208.94751779 936.82451922 159 954.25 C157.94377441 954.61996094 156.88754883 954.98992188 155.79931641 955.37109375 C133.17623261 963.24242828 110.48812919 968.59870886 87 973.25 C86.17790039 973.41773926 85.35580078 973.58547852 84.50878906 973.75830078 C70.16453276 976.68052295 55.56315606 977.92616281 41 979.25 C39.68174225 979.37720177 39.68174225 979.37720177 38.33685303 979.50697327 C31.0418116 980.17373919 23.81554085 980.41043282 16.4921875 980.41796875 C15.32785187 980.42129715 14.16351624 980.42462555 12.96389771 980.42805481 C10.5083251 980.43308785 8.05274573 980.43546426 5.59716797 980.43530273 C1.93314573 980.43746568 -1.73056302 980.45559566 -5.39453125 980.47460938 C-27.35327751 980.52827426 -49.11861789 979.10637891 -70.875 976.125 C-71.6380545 976.02151245 -72.40110901 975.9180249 -73.18728638 975.81140137 C-119.30460483 969.4644017 -163.67073325 955.49773242 -206 936.25 C-206.81871582 935.88052246 -207.63743164 935.51104492 -208.48095703 935.13037109 C-236.58469615 922.38611798 -263.14161819 906.5157696 -288 888.25 C-288.56638184 887.83524414 -289.13276367 887.42048828 -289.71630859 886.99316406 C-304.82118097 875.89735969 -319.16199031 863.88095589 -333 851.25 C-333.91007813 850.43273438 -334.82015625 849.61546875 -335.7578125 848.7734375 C-346.10052824 839.42362247 -356.41373302 829.78118447 -365.4140625 819.11328125 C-367.30191407 816.89528815 -369.27702792 814.76757845 -371.25 812.625 C-376.29815828 807.02256758 -380.92244425 801.13465799 -385.52001953 795.16259766 C-387.0097521 793.23739724 -388.5169948 791.3270228 -390.02734375 789.41796875 C-422.79073322 747.69771825 -447.49656236 700.19660105 -465 650.25 C-465.35932617 649.24163086 -465.71865234 648.23326172 -466.08886719 647.19433594 C-479.04846673 610.70440358 -486.82468806 572.23687781 -489.72216797 533.64379883 C-489.87490594 531.77806023 -490.03807617 529.9127014 -490.24806213 528.05253601 C-490.99539904 521.36874847 -491.16042452 514.76521981 -491.16796875 508.04296875 C-491.17220352 506.89220856 -491.17643829 505.74144836 -491.18080139 504.55581665 C-491.19064546 500.84967354 -491.1907301 497.14365382 -491.1875 493.4375 C-491.18689575 492.173685 -491.1862915 490.90987 -491.18566895 489.60775757 C-491.1619575 471.408503 -491.01201935 453.35537191 -489 435.25 C-488.82259277 433.5781665 -488.82259277 433.5781665 -488.64160156 431.87255859 C-486.97649878 416.74893418 -484.26566485 401.92289288 -481.0625 387.0625 C-480.89941345 386.30316162 -480.7363269 385.54382324 -480.56829834 384.76147461 C-476.94884101 368.04707028 -472.35571813 351.65572113 -466.9375 335.4375 C-466.58809357 334.38958282 -466.58809357 334.38958282 -466.23162842 333.32049561 C-446.95878209 275.82265783 -416.87519059 222.73534209 -378 176.25 C-377.55962402 175.72325684 -377.11924805 175.19651367 -376.66552734 174.65380859 C-366.19191725 162.16926536 -355.11834847 150.29987313 -343.625 138.75 C-342.98336914 138.10369629 -342.34173828 137.45739258 -341.68066406 136.79150391 C-337.28371608 132.40931079 -332.70329961 128.29918279 -328 124.25 C-326.80884187 123.20432438 -325.61870738 122.15748134 -324.4296875 121.109375 C-316.1665708 113.86476224 -307.75282585 106.89484996 -299 100.25 C-298.29391602 99.71262207 -297.58783203 99.17524414 -296.86035156 98.62158203 C-247.72326843 61.3916909 -192.19697116 34.27283093 -133 17.25 C-132.2064209 17.01619629 -131.4128418 16.78239258 -130.59521484 16.54150391 C-107.74802128 9.84848346 -84.01279865 5.52704097 -60.375 2.875 C-59.67076904 2.79555145 -58.96653809 2.71610291 -58.2409668 2.63424683 C-38.83312153 0.48519549 -19.5153026 0.01103944 0 0 Z " fill="#1D1836" transform="translate(1001,259.75)"/>
<path d="M0 0 C0.88380341 0.00087616 1.76760681 0.00175232 2.67819214 0.00265503 C28.01061486 0.08473625 52.2773583 2.92672739 76.3125 11.375 C77.19470215 11.68453613 78.0769043 11.99407227 78.98583984 12.31298828 C112.72723694 24.43221889 147.55780501 47.24565315 163.35546875 80.57421875 C172.69422612 101.13825635 176.61638755 126.24207206 169.5625 148.1875 C164.74235363 160.47887324 157.29795002 171.03466792 144.84765625 176.48046875 C132.38817968 180.87680178 114.96530486 181.50782571 102.3125 177.375 C97.72392893 175.17030456 93.49759349 172.3874856 90.3125 168.375 C90.578125 166.1328125 90.578125 166.1328125 91.5625 163.5 C97.9350044 141.68950376 92.98182489 113.38889216 82.5625 93.5 C68.72179846 68.38011063 43.87845303 54.65535796 17.25 46.47265625 C15.9382163 46.10421098 14.62569537 45.73838176 13.3125 45.375 C12.31476563 45.08085205 12.31476563 45.08085205 11.296875 44.78076172 C-13.84298708 37.66362021 -46.61482042 38.41713285 -71.6875 45.375 C-72.5007373 45.58930664 -73.31397461 45.80361328 -74.15185547 46.02441406 C-85.6992066 49.12264887 -96.26496088 53.54085194 -106.6875 59.375 C-108.16283203 60.18904297 -108.16283203 60.18904297 -109.66796875 61.01953125 C-129.70015104 72.90008958 -144.05162547 92.59540333 -151.6875 114.375 C-152.0071875 115.27347656 -152.326875 116.17195312 -152.65625 117.09765625 C-160.67740972 144.68896027 -152.80403537 177.35236742 -139.83178711 202.15136719 C-123.0833001 232.32343106 -91.77994641 249.92620296 -59.6875 259.375 C-33.01203227 266.80937833 -5.84335702 272.115952 21.37890625 277.1015625 C139.69321178 298.79167257 139.69321178 298.79167257 179.3125 335.375 C179.81201172 335.83068359 180.31152344 336.28636719 180.82617188 336.75585938 C203.67525908 357.82218294 218.56711204 385.49162662 226.3125 415.375 C226.52503418 416.15649414 226.73756836 416.93798828 226.95654297 417.74316406 C234.49174703 445.54756875 237.52352014 475.87929494 232.3125 504.375 C232.03792969 506.23125 232.03792969 506.23125 231.7578125 508.125 C227.2568441 536.13102561 213.68609727 562.46599191 194.390625 583.14453125 C192.48223109 585.19282622 190.67625274 587.29535597 188.875 589.4375 C159.12908323 623.29793133 111.52731587 644.82496817 68.3125 654.375 C67.51328125 654.55224609 66.7140625 654.72949219 65.890625 654.91210938 C29.97188435 662.73403639 -9.06268433 667.43519351 -45.66503906 661.68261719 C-47.83269357 661.35291599 -50.00305052 661.08395106 -52.1796875 660.8203125 C-106.19573068 653.95937022 -164.25847768 630.15854799 -198.515625 586.01953125 C-211.56304844 568.0058588 -219.25572343 549.06689815 -223.6875 527.375 C-223.935 526.25867188 -224.1825 525.14234375 -224.4375 523.9921875 C-228.64255713 502.09084827 -226.67129995 478.48302748 -214.6875 459.375 C-207.75320337 450.07106963 -199.9019858 443.63089534 -188.23828125 441.84765625 C-182.79228055 441.19970778 -177.35431519 441.11402961 -171.875 441.0625 C-170.85857422 441.03349609 -169.84214844 441.00449219 -168.79492188 440.97460938 C-160.10250435 440.90258807 -152.86419095 442.80472865 -145.4375 447.375 C-143.4053558 450.85867577 -143.61299466 451.87631736 -144.05859375 455.77734375 C-147.88355462 494.33364369 -141.41172915 533.44667315 -117.109375 564.453125 C-95.0328321 591.08740579 -66.16741522 609.5259763 -32.6875 618.375 C-31.91535156 618.58672852 -31.14320313 618.79845703 -30.34765625 619.01660156 C-5.02946675 625.66209972 25.80889512 624.67364252 51.3125 619.375 C52.03147461 619.23046387 52.75044922 619.08592773 53.49121094 618.93701172 C88.03507057 611.77277073 117.46146397 591.66732042 137.05859375 562.30908203 C155.92787716 533.20424107 163.08700862 499.58283909 156.25 465.3125 C151.59043015 443.82118199 143.35081506 423.70769273 128.3125 407.375 C127.83828613 406.8584082 127.36407227 406.34181641 126.87548828 405.80957031 C119.12921684 397.4666701 110.90084411 390.50461761 101.3125 384.375 C100.72726562 383.9939209 100.14203125 383.6128418 99.5390625 383.22021484 C88.17048529 375.93799576 75.83590034 371.61544895 63.09570312 367.31933594 C60.83924588 366.55372395 58.59699332 365.76368956 56.359375 364.9453125 C48.34592323 362.09401455 40.17730458 359.96570507 31.9375 357.875 C30.86975342 357.60220215 29.80200684 357.3294043 28.7019043 357.04833984 C19.02712201 354.65273318 9.2701032 352.72945537 -0.50585938 350.79833984 C-12.04549202 348.5182279 -23.56941218 346.16010293 -35.09283447 343.79965401 C-38.79379078 343.04158246 -42.49513738 342.28555174 -46.19750977 341.53442383 C-93.06847554 332.02134025 -93.06847554 332.02134025 -113.375 325.0625 C-115.05106323 324.49293579 -115.05106323 324.49293579 -116.76098633 323.91186523 C-154.89989318 310.71881979 -190.59060727 287.7123137 -208.9140625 250.32421875 C-212.35646339 242.87455891 -215.08943692 235.1519149 -217.6875 227.375 C-218.29078125 225.58449219 -218.29078125 225.58449219 -218.90625 223.7578125 C-221.99041847 213.82772461 -223.39322843 203.66309181 -224.6875 193.375 C-224.8215625 192.33988281 -224.955625 191.30476562 -225.09375 190.23828125 C-229.09168748 152.20234823 -221.17219142 113.1697451 -196.921875 82.83984375 C-194.25695772 79.61131927 -191.48332298 76.49057986 -188.6875 73.375 C-187.89085937 72.4571875 -187.09421875 71.539375 -186.2734375 70.59375 C-181.72952831 65.40963367 -177.01117308 60.74909952 -171.6875 56.375 C-170.65302734 55.49134766 -170.65302734 55.49134766 -169.59765625 54.58984375 C-134.48702384 25.3609925 -91.51632682 10.9740935 -47.0625 3.75 C-46.38429199 3.63889893 -45.70608398 3.52779785 -45.00732422 3.41333008 C-29.9989703 1.08336914 -15.17928577 -0.03718344 0 0 Z " fill="#FEFEFE" transform="translate(1011.6875,417.625)"/>
</svg>
